<?xml version="1.0" encoding="UTF-8"?>
<svg id="Hand_drawn_2" data-name="Hand drawn 2" xmlns="http://www.w3.org/2000/svg" viewBox="0 0 1813.18 1914.8">
  <defs>
    <style>
      .cls-1 {
        fill: #3a8e3a;
      }
    </style>
  </defs>
  <g id="Without_border_text" data-name="Without border + text">
    <g id="Star_3" data-name="Star 3">
      <path id="Star_3-2" data-name="Star 3" class="cls-1" d="m190.12,578.26l514.81-20.27,159.45-397.61S931.34,5.72,1037.02,1.24c105.68-4.48,205.69,573.14,221.94,582.11,32.2-6.33,337.18-5.67,358.88-7.73,209.29-19.89,252.76,103.91,119.03,219-133.73,115.1-362.8,380.29-362.8,380.29,0,0,103.8,400.04,123.7,440.49,31.2,63.42,30.81,513.26-308.78,170.99-80.71-81.35-255.24-283.68-255.24-283.68,0,0-336.91,253.47-370.04,283.79-33.13,30.32-443.02,185.9-228.62-200.38,214.4-386.29,186.3-400.6,186.3-400.6,0,0-381.61-296.5-424.22-339.54-49.18-49.68-235.5-204.58,92.95-267.71Z"/>
    </g>
  </g>
</svg>