<?xml version="1.0" encoding="UTF-8"?>
<svg id="Hand_drawn_2" data-name="Hand drawn 2" xmlns="http://www.w3.org/2000/svg" viewBox="0 0 1653.54 1914.8">
  <defs>
    <style>
      .cls-1 {
        fill: #ec8bf0;
      }
    </style>
  </defs>
  <g id="Without_border_text" data-name="Without border + text">
    <g id="Star_2" data-name="Star 2">
      <path id="Star_2-2" data-name="Star 2" class="cls-1" d="m75.81,820.25l409.57-198.3s77.84-446.64,94.52-485.55c16.68-38.92,96.37-266.87,248.34-14.83,151.97,252.04,227.95,389.18,227.95,389.18,0,0,318.76-100.08,385.48-109.34,66.72-9.27,331.73-1.85,148.26,281.7-183.47,283.55-277.99,363.24-277.99,363.24,0,0,81.54,305.79,94.52,370.65,12.97,64.86,135.5,536.4-263.16,220.54l-202.01-183.47s-227.95,308.57-242.78,329.88c-14.83,21.31-328.95,353.05-259.46-153.82,69.5-506.87,66.72-405.86,66.72-405.86,0,0-323.39-188.11-360.46-202.01-37.07-13.9-259.46-126.02-69.5-202.01Z"/>
    </g>
  </g>
</svg>