<?xml version="1.0" encoding="UTF-8"?>
<svg id="Hand_drawn_2" data-name="Hand drawn 2" xmlns="http://www.w3.org/2000/svg" viewBox="0 0 1994.67 1914.8">
  <defs>
    <style>
      .cls-1 {
        fill: #f2af7f;
      }
    </style>
  </defs>
  <g id="Without_border_text" data-name="Without border + text">
    <g id="Star_1" data-name="Star 1">
      <path id="Star_1-2" data-name="Star 1" class="cls-1" d="m87.58,589.82l657.74-67.86L1021.99,67.8s143.56-180.1,206.2,67.86c62.64,247.96,101.79,383.68,101.79,383.68l360.19,23.49s302.77-1.74,294.94,79.17c-7.83,80.91-120.06,202.72-237.52,317.56-117.45,114.84-257.09,244.04-257.09,244.04,0,0,163.13,407.83,113.54,678.62-6.85,37.38-79.61,91.35-217.94-11.75-138.33-103.1-347.14-233.6-386.29-294.94-39.15-61.34-408.08,252.54-511.58,283.2-204.89,60.68-382.92,83.06-247.96-234.91,135.47-319.16,221.86-451.55,221.86-451.55L68,764.7s-146.17-140.95,19.58-174.88Z"/>
    </g>
  </g>
</svg>