<?xml version="1.0" encoding="UTF-8"?>
<svg id="Hand_drawn_2" data-name="Hand drawn 2" xmlns="http://www.w3.org/2000/svg" viewBox="0 0 1852.53 1914.8">
  <defs>
    <style>
      .cls-1 {
        fill: #e66f7b;
      }
    </style>
  </defs>
  <g id="Without_border_text" data-name="Without border + text">
    <g id="Star_4" data-name="Star 4">
      <path id="Star_4-2" data-name="Star 4" class="cls-1" d="m465.88,1098.66c-14.48-10.37-298.92-154.31-298.92-154.31,0,0-409.12-148.61,53.49-266.26,331.41-84.28,421.08-84.37,421.08-84.37l80.15-451.71s-.91-124.2,82.69-140.8c83.61-16.6,174.56,142.98,203.22,190.88,28.66,47.9,116,220.26,176.04,295.71,60.04,75.46,308.27,64.58,308.27,64.58,0,0,160.63-30.94,271.1,38.62,155.05,97.63,90.82,195.8-56.65,326.75-118.59,105.31-309.06,219.25-309.06,219.25l139.31,466.43,45.91,186.57s19.17,267.38-263.6,19.4c-276.03-242.07-338.96-307.99-338.96-307.99l-418.37,305.52s-287.52,284-212.01-141.19c48.93-275.5,116.29-567.08,116.29-567.08Z"/>
    </g>
  </g>
</svg>