<?xml version="1.0" encoding="UTF-8"?>
<svg id="Hand_drawn_2" data-name="Hand drawn 2" xmlns="http://www.w3.org/2000/svg" viewBox="0 0 1817.28 1914.8">
  <defs>
    <style>
      .cls-1 {
        fill: #7b84e9;
      }
    </style>
  </defs>
  <g id="Without_border_text" data-name="Without border + text">
    <g id="Star_5" data-name="Star 5">
      <path id="Star_5-2" data-name="Star 5" class="cls-1" d="m688.88,603.88L888.8,64.27s63.69-138,134.46,0c70.77,138,178.69,505.99,178.69,505.99l547.05-30.66s123.48-11.8,27.94,154.5c-95.54,166.31-367.99,431.69-367.99,431.69l191.07,495.38s31.85,251.23-247.69,145.07c-237.07-187.54-370.35-296.35-370.35-296.35,0,0-504.86,509.79-599.17,434.35-53.08-42.46-4.81-378.35,30.96-486.53,36.27-109.69,82.27-219,82.27-219L53.73,907.89s-138-146.55,28.31-199.63c166.31-53.08,606.84-104.38,606.84-104.38Z"/>
    </g>
  </g>
</svg>