<?xml version="1.0" encoding="UTF-8"?>
<svg id="Hand_drawn_2" data-name="Hand drawn 2" xmlns="http://www.w3.org/2000/svg" viewBox="0 0 219.96 231.52">
  <defs>
    <style>
      .cls-1 {
        letter-spacing: .09em;
      }

      .cls-2 {
        letter-spacing: .15em;
      }

      .cls-3 {
        fill: #fff;
        font-family: SegoeScript-Bold, 'Segoe Script';
        font-size: 32px;
        font-weight: 700;
      }

      .cls-4 {
        fill: #ec8bf0;
        <!-- fill: #5a66f2; -->
        <!-- stroke: #2b2b2b; -->
        stroke-miterlimit: 10;
        stroke-width: 1.02px;
      }
    </style>
  </defs>
  <g id="Star_5" data-name="Star 5">
    <path id="Star_5-2" data-name="Star 5" class="cls-4" d="m83.69,73.07L107.83,7.91s7.69-16.66,16.24,0c8.55,16.66,21.58,61.1,21.58,61.1l66.06-3.7s14.91-1.43,3.37,18.66c-11.54,20.08-44.44,52.13-44.44,52.13l23.07,59.82s3.85,30.34-29.91,17.52c-28.63-22.65-44.72-35.78-44.72-35.78,0,0-60.96,61.56-72.35,52.45-6.41-5.13-.58-45.69,3.74-58.75,4.38-13.25,9.93-26.44,9.93-26.44L7,109.78s-16.66-17.7,3.42-24.11c20.08-6.41,73.28-12.6,73.28-12.6Z"/>
    <text class="cls-3" transform="translate(34.5 111.85) rotate(30.13)"><tspan class="cls-1" x="0" y="0">T</tspan><tspan class="cls-2" x="25.48" y="0">ema 5</tspan></text>
  </g>
</svg>