<?xml version="1.0" encoding="UTF-8"?>
<svg id="Hand_drawn_2" data-name="Hand drawn 2" xmlns="http://www.w3.org/2000/svg" viewBox="0 0 245.95 259.35">
  <defs>
    <style>
      .cls-1 {
        letter-spacing: .09em;
      }

      .cls-2 {
        fill: #fff;
        font-family: SegoeScript-Bold, 'Segoe Script';
        font-size: 32px;
        font-weight: 700;
      }

      .cls-3 {
        letter-spacing: .16em;
      }

      .cls-4 {
        fill: #33a833;
        <!-- stroke: #2b2b2b; -->
        stroke-miterlimit: 10;
        stroke-width: 1.02px;
      }
    </style>
  </defs>
  <g id="Star_3" data-name="Star 3">
    <path id="Star_3-2" data-name="Star 3" class="cls-4" d="m26.19,78.46l69.54-2.74,21.54-53.71S126.32,1.12,140.6.51c14.28-.6,27.79,77.42,29.98,78.64,4.35-.86,45.55-.77,48.48-1.04,28.27-2.69,34.15,14.04,16.08,29.58-18.07,15.55-49.01,51.37-49.01,51.37,0,0,14.02,54.04,16.71,59.5,4.21,8.57,4.16,69.34-41.71,23.1-10.9-10.99-34.48-38.32-34.48-38.32,0,0-45.51,34.24-49.99,38.34s-59.85,25.11-30.88-27.07c28.96-52.18,25.17-54.12,25.17-54.12,0,0-51.55-40.05-57.31-45.87-6.64-6.71-31.81-27.64,12.56-36.16Z"/>
    <text class="cls-2" transform="translate(87.2 192.27) rotate(-36.85)"><tspan class="cls-1" x="0" y="0">T</tspan><tspan class="cls-3" x="25.48" y="0">ema 3</tspan></text>
  </g>
</svg>