<?xml version="1.0" encoding="UTF-8"?>
<svg id="Hand_drawn_2" data-name="Hand drawn 2" xmlns="http://www.w3.org/2000/svg" viewBox="0 0 228.89 220.68">
  <defs>
    <style>
      .cls-1 {
        letter-spacing: .09em;
      }

      .cls-2 {
        letter-spacing: .15em;
      }

      .cls-3 {
        fill: #ff903f;
        stroke: #fff;
        stroke-miterlimit: 10;
        stroke-width: 1.02px;
      }

      .cls-4 {
        fill: #fff;
        font-family: SegoeScript-Bold, 'Segoe Script';
        font-size: 32px;
        font-weight: 700;
      }
    </style>
  </defs>
  <g id="Star_1" data-name="Star 1">
    <path id="Star_1-2" data-name="Star 1" class="cls-3" d="m9.63,67.97l75.82-7.82L117.34,7.79s16.55-20.76,23.77,7.82,11.73,44.23,11.73,44.23l41.52,2.71s34.9-.2,34,9.13-13.84,23.37-27.38,36.61c-13.54,13.24-29.64,28.13-29.64,28.13,0,0,18.8,47.01,13.09,78.23-.79,4.31-9.18,10.53-25.12-1.35-15.95-11.88-40.02-26.93-44.53-34-4.51-7.07-47.04,29.11-58.97,32.65-23.62,7-44.14,9.57-28.58-27.08,15.62-36.79,25.57-52.05,25.57-52.05L7.37,88.12s-16.85-16.25,2.26-20.16Z"/>
    <text class="cls-4" transform="translate(33.59 110.34)"><tspan class="cls-1" x="0" y="0">T</tspan><tspan class="cls-2" x="25.48" y="0">ema 1</tspan></text>
  </g>
</svg>